<svg width="66" height="18" viewBox="0 0 66 18" fill="none" xmlns="http://www.w3.org/2000/svg">
<path d="M0.25 17H3.49V10.78H4.26L9.02 17H13.13L7.73 10.41C8.89 10.09 9.79333 9.5 10.44 8.64C11.0933 7.78 11.42 6.73 11.42 5.49C11.42 4.43667 11.19 3.54 10.73 2.8C10.2767 2.05333 9.63333 1.48333 8.8 1.09C7.97333 0.696666 6.99667 0.499999 5.87 0.499999H0.25V17ZM3.49 8.08V3.09H4.87C5.88333 3.09 6.66333 3.30667 7.21 3.74C7.75667 4.17333 8.03 4.78667 8.03 5.58C8.03 6.37333 7.75333 6.99 7.2 7.43C6.65333 7.86333 5.87667 8.08 4.87 8.08H3.49ZM21.3477 17.32C23.421 17.32 24.9843 16.8 26.0377 15.76C27.0977 14.72 27.6277 13.1833 27.6277 11.15V0.499999H24.3877V10.22C24.3877 11.6133 24.1477 12.6167 23.6677 13.23C23.1943 13.8367 22.421 14.14 21.3477 14.14C20.2743 14.14 19.4977 13.8367 19.0177 13.23C18.5443 12.6167 18.3077 11.6133 18.3077 10.22V0.499999H15.0677V11.15C15.0677 13.1833 15.5977 14.72 16.6577 15.76C17.7177 16.8 19.281 17.32 21.3477 17.32ZM31.8516 17H35.0916V5.9L42.2016 17H45.4416V0.499999H42.2016V11.6L35.0916 0.499999H31.8516V17ZM57.0575 17.32C58.2108 17.32 59.2908 17.1 60.2975 16.66C61.3042 16.22 62.1875 15.61 62.9475 14.83C63.7075 14.0433 64.3008 13.1333 64.7275 12.1C65.1608 11.06 65.3775 9.94667 65.3775 8.76C65.3775 7.57333 65.1608 6.46333 64.7275 5.43C64.3008 4.39 63.7075 3.48 62.9475 2.7C62.1875 1.91333 61.3042 1.3 60.2975 0.859999C59.2908 0.419999 58.2108 0.199999 57.0575 0.199999C55.9042 0.199999 54.8242 0.419999 53.8175 0.859999C52.8108 1.3 51.9275 1.91333 51.1675 2.7C50.4075 3.48 49.8108 4.39 49.3775 5.43C48.9508 6.46333 48.7375 7.57333 48.7375 8.76C48.7375 9.94667 48.9508 11.06 49.3775 12.1C49.8108 13.1333 50.4075 14.0433 51.1675 14.83C51.9275 15.61 52.8108 16.22 53.8175 16.66C54.8242 17.1 55.9042 17.32 57.0575 17.32ZM57.0575 14.2C56.1242 14.2 55.2908 13.9667 54.5575 13.5C53.8308 13.0333 53.2608 12.39 52.8475 11.57C52.4342 10.75 52.2275 9.81333 52.2275 8.76C52.2275 7.70667 52.4342 6.77 52.8475 5.95C53.2608 5.13 53.8308 4.48667 54.5575 4.02C55.2908 3.55333 56.1242 3.32 57.0575 3.32C57.9975 3.32 58.8308 3.55333 59.5575 4.02C60.2842 4.48667 60.8542 5.13 61.2675 5.95C61.6808 6.77 61.8875 7.70667 61.8875 8.76C61.8875 9.81333 61.6808 10.75 61.2675 11.57C60.8542 12.39 60.2842 13.0333 59.5575 13.5C58.8308 13.9667 57.9975 14.2 57.0575 14.2Z" fill="#F8F9FA"/>
</svg>
